C:\OpenCap\opencap-processing\Data\7866dab3-7210-45d6-b98e-60491a15613b\OpenSimData\Dynamics\TRJave50\GRF_resultant_TRJave50_0.mot
version=1
nRows=12
nColumns=19
inDegrees=yes
endheader 
time	ground_force_right_vx	ground_force_right_vy	ground_force_right_vz	ground_force_right_px	ground_force_right_py	ground_force_right_pz	ground_torque_right_x	ground_torque_right_y	ground_torque_right_z	ground_force_left_vx	ground_force_left_vy	ground_force_left_vz	ground_force_left_px	ground_force_left_py	ground_force_left_pz	ground_torque_left_x	ground_torque_left_y	ground_torque_left_z	
          4.20000000	       -271.82744834	        195.23760950	        276.99667578	         -5.46715408	          0.00000000	          0.50797154	          0.00000000	          0.57238204	          0.00000000	         -0.00000000	         -0.00000000	         -0.00000000	          0.00000000	          0.00000000	          0.00000000	          0.00000000	          0.00000000	          0.00000000	
          4.21000000	       -411.77178060	        351.88774651	         47.76107951	         -5.46673260	          0.00000000	          0.47894614	          0.00000000	          0.77896771	          0.00000000	         -0.00000000	          0.00000000	          0.00000000	         -5.86896426	          0.00000000	          0.25444132	          0.00000000	         -0.00000000	          0.00000000	
          4.22000000	       -284.15537165	        649.47563626	         31.47508913	         -5.44979881	          0.00000000	          0.48199196	          0.00000000	          5.73068323	          0.00000000	         -0.00000000	          0.00000000	          0.00000000	         -5.80358496	          0.00000000	          0.25548732	          0.00000000	          0.00000000	          0.00000000	
          4.23000000	       -305.17063143	       1102.25825364	          4.25218329	         -5.43344417	          0.00000000	          0.49247833	          0.00000000	         30.56797328	          0.00000000	         -0.00000004	          0.00000001	          0.00000000	         -5.74216278	          0.00000000	          0.25889126	          0.00000000	          0.00000000	          0.00000000	
          4.24000000	       -303.69761278	       1530.60640347	        -15.53280583	         -5.41606880	          0.00000000	          0.49963518	          0.00000000	         44.77439647	          0.00000000	         -0.00001064	          0.00000198	         -0.00000011	         -5.67646826	          0.00000000	          0.26398342	          0.00000000	          0.00000000	          0.00000000	
          4.25000000	       -266.62536230	       1452.26523480	         10.50768025	         -5.40008258	          0.00000000	          0.50151138	          0.00000000	         38.84000715	          0.00000000	         -0.00251745	          0.00043663	         -0.00013524	         -5.60689617	          0.00000000	          0.27099312	          0.00000000	          0.00000000	          0.00000000	
          4.26000000	       -292.62934065	       1320.94316583	         -1.86458581	         -5.37667976	          0.00000000	          0.50589586	          0.00000000	         39.37221137	          0.00000000	         -0.16933149	          0.02806541	         -0.01661247	         -5.53164501	          0.00000000	          0.27989853	          0.00000000	         -0.00000000	          0.00000000	
          4.27000000	         28.36616066	       1177.37377888	        -93.90454693	         -5.36947493	          0.00000000	          0.50041107	          0.00000000	          7.97401454	          0.00000000	         -1.55987539	          0.25018437	         -0.20793183	         -5.44517705	          0.00000000	          0.29131009	          0.00000000	          0.00000000	          0.00000000	
          4.28000000	       -446.41915144	        965.54746040	         -5.09151007	         -5.29801563	          0.00000000	          0.50596738	          0.00000000	         37.33372860	          0.00000000	         -0.42411208	          0.06655048	         -0.07092889	         -5.34281483	          0.00000000	          0.30748945	          0.00000000	          0.00000000	          0.00000000	
          4.29000000	         -0.00000000	         -0.00000000	         -0.00000000	          0.00000000	          0.00000000	          0.00000000	          0.00000000	          0.00000000	          0.00000000	         -0.00000000	         -0.00000000	         -0.00000000	          0.00000000	          0.00000000	          0.00000000	          0.00000000	          0.00000000	          0.00000000	
          4.30000000	       -218.27029664	        774.00340132	        -82.41375007	         -5.28915724	          0.00000000	          0.50151312	          0.00000000	         10.40762585	          0.00000000	         -0.00000000	         -0.00000000	         -0.00000000	          0.00000000	          0.00000000	          0.00000000	          0.00000000	          0.00000000	          0.00000000	
          4.31000000	       -241.89857966	        709.43627851	        -31.57277086	         -5.28301157	          0.00000000	          0.50178010	          0.00000000	         10.37774804	          0.00000000	         -0.00000000	         -0.00000000	         -0.00000000	          0.00000000	          0.00000000	          0.00000000	          0.00000000	          0.00000000	          0.00000000	
